# File created by Blade
# Date/Time:  Wed Apr 08 17:24:36 2015
# Frame Rate: 120.000 fps
#------------------------------------------------------
:FULLY-SPECIFIED
:DEGREES
1212
root 9.986366 38.784101 7.389219 213.702765 -10.887936 -138.497234
Spine -12.738082 6.051401 7.938506
Head -12.880695 0.632848 31.235104
LeftShoulder -6.618348 22.784737 22.929184
LeftArm 5.106942 32.246392 -79.000657
LeftForeArm 9.547705 0.000000 32.556648
LeftHand -13.082981 -0.000000 -16.489733
LeftHandThumb1 -26.253704 0.000000 33.147579
RightShoulder -49.144962 -50.438578 32.500519
RightArm 37.330048 -14.888102 63.497157
RightForeArm 46.825175 -0.000000 31.319273
RightHand -7.453700 -0.000000 5.880682
RightHandThumb1 -24.326973 -0.000000 -32.862282
LeftUpLeg -81.550900 46.830588 -25.341490
LeftLeg 18.202386 -0.000000 -0.000000
LeftFoot -13.063664 22.975214 -7.858196
LeftToeBase 4.743201 -0.000000 -0.000000
RightUpLeg -29.351924 -12.593682 -29.626968
RightLeg 153.575595 -0.000000 -0.000000
RightFoot 31.499889 13.007256 10.779075
RightToeBase -7.313441 -0.000000 0.000000
1213
root 9.975285 38.801118 7.408364 214.022315 -10.787588 -138.489870
Spine -13.122408 6.085180 7.822600
Head -12.783615 0.450164 31.324165
LeftShoulder -6.511134 22.695227 23.049911
LeftArm 5.065079 32.026920 -79.180159
LeftForeArm 9.737929 -0.000000 32.480998
LeftHand -12.871478 -0.000000 -16.611374
LeftHandThumb1 -26.253704 0.000000 33.147579
RightShoulder -49.138213 -50.446135 32.426148
RightArm 37.250379 -15.056018 63.401558
RightForeArm 46.464673 -0.000000 31.077311
RightHand -7.489868 0.000000 5.923507
RightHandThumb1 -24.326973 -0.000000 -32.862282
LeftUpLeg -82.181942 46.811967 -25.940723
LeftLeg 18.235320 -0.000000 -0.000000
LeftFoot -13.111220 22.704126 -8.116555
LeftToeBase 4.893228 -0.000000 -0.000000
RightUpLeg -29.381642 -12.541496 -29.642721
RightLeg 153.483065 -0.000000 -0.000000
RightFoot 31.658677 13.134758 10.751898
RightToeBase -7.753411 -0.000000 0.000000
1214
root 9.963125 38.821849 7.430364 214.468486 -10.643802 -138.489824
Spine -13.659904 6.153516 7.651011
Head -12.644947 0.307672 31.397831
LeftShoulder -6.491173 22.688096 23.087416
LeftArm 5.051905 31.951485 -79.164376
LeftForeArm 9.896001 -0.000000 32.683949
LeftHand -12.805280 -0.000000 -16.700504
LeftHandThumb1 -26.253704 0.000000 33.147579
RightShoulder -49.179751 -50.450393 32.360866
RightArm 37.215618 -15.270433 63.294271
RightForeArm 45.978761 -0.000000 30.768384
RightHand -7.575987 -0.000000 5.871818
RightHandThumb1 -24.326973 -0.000000 -32.862282
LeftUpLeg -82.910066 46.746701 -26.622813
LeftLeg 18.220725 -0.000000 -0.000000
LeftFoot -13.100726 22.493397 -8.349579
LeftToeBase 4.978273 -0.000000 -0.000000
RightUpLeg -29.549741 -12.540557 -29.624746
RightLeg 153.420020 -0.000000 -0.000000
RightFoot 31.757782 13.133978 10.771868
RightToeBase -8.077047 -0.000000 0.000000
1215
root 9.957631 38.841378 7.441948 214.738263 -10.554674 -138.492611
Spine -14.022936 6.169620 7.505095
Head -12.507407 0.153530 31.499224
LeftShoulder -6.464895 22.681263 23.099124
LeftArm 5.077180 31.914676 -79.073827
LeftForeArm 9.939414 0.000000 32.935658
LeftHand -12.882497 -0.000000 -16.680190
LeftHandThumb1 -26.253704 0.000000 33.147579
RightShoulder -49.122857 -50.419474 32.210448
RightArm 37.133611 -15.456710 63.292977
RightForeArm 45.756779 0.000000 30.336754
RightHand -7.338123 -0.000000 6.251539
RightHandThumb1 -24.326973 -0.000000 -32.862282
LeftUpLeg -83.344568 46.728306 -27.053570
LeftLeg 18.187637 -0.000000 -0.000000
LeftFoot -13.086793 22.273075 -8.555802
LeftToeBase 5.093792 -0.000000 -0.000000
RightUpLeg -29.476991 -12.403273 -29.657964
RightLeg 153.289979 -0.000000 -0.000000
RightFoot 32.115189 13.326972 10.789406
RightToeBase -8.458255 -0.000000 0.000000
1216
root 9.953455 38.857781 7.448425 214.879216 -10.477948 -138.520815
Spine -14.234207 6.126217 7.358620
Head -12.375215 0.014116 31.590586
LeftShoulder -6.458824 22.649428 23.103499
LeftArm 5.073687 31.816968 -79.007906
LeftForeArm 9.994290 -0.000000 33.236919
LeftHand -12.963207 -0.000000 -16.524319
LeftHandThumb1 -26.253704 0.000000 33.147579
RightShoulder -49.069938 -50.411574 32.063466
RightArm 37.133009 -15.616775 63.299087
RightForeArm 45.382767 0.000000 29.877075
RightHand -7.460360 -0.000000 6.227204
RightHandThumb1 -24.326973 -0.000000 -32.862282
LeftUpLeg -83.552143 46.750966 -27.347315
LeftLeg 18.111282 -0.000000 -0.000000
LeftFoot -13.074903 22.058338 -8.742368
LeftToeBase 5.206556 -0.000000 -0.000000
RightUpLeg -29.272400 -12.296844 -29.689059
RightLeg 153.154526 -0.000000 -0.000000
RightFoot 32.563631 13.211711 10.807952
RightToeBase -8.641266 -0.000000 0.000000
1217
root 9.945320 38.879032 7.458569 215.175856 -10.371091 -138.552830
Spine -14.623342 6.105200 7.177005
Head -12.237452 -0.074564 31.639072
LeftShoulder -6.510162 22.645847 23.072006
LeftArm 5.054718 31.684124 -78.933872
LeftForeArm 10.010383 -0.000000 33.563886
LeftHand -13.050863 -0.000000 -16.313666
LeftHandThumb1 -26.253704 0.000000 33.147579
RightShoulder -49.029091 -50.407150 31.900764
RightArm 37.116092 -15.815274 63.290617
RightForeArm 45.179419 -0.000000 29.460820
RightHand -7.474222 -0.000000 6.322680
RightHandThumb1 -24.326973 -0.000000 -32.862282
LeftUpLeg -83.878563 46.705155 -27.748660
LeftLeg 17.963407 -0.000000 -0.000000
LeftFoot -13.031927 21.880368 -8.930534
LeftToeBase 5.362247 -0.000000 -0.000000
RightUpLeg -29.230068 -12.151137 -29.735592
RightLeg 152.982877 -0.000000 -0.000000
RightFoot 33.220154 13.155099 11.173947
RightToeBase -8.721857 -0.000000 0.000000
1218
root 9.944001 38.897216 7.459692 215.257218 -10.326855 -138.586570
Spine -14.781026 6.010244 7.042852
Head -12.105539 -0.155515 31.684702
LeftShoulder -6.542655 22.654868 23.059675
LeftArm 5.103554 31.497662 -78.873396
LeftForeArm 9.701584 0.000000 33.809716
LeftHand -13.073865 -0.000000 -16.283890
LeftHandThumb1 -26.253704 0.000000 33.147579
RightShoulder -48.954707 -50.452458 31.742326
RightArm 37.114160 -15.979957 63.328622
RightForeArm 44.950758 0.000000 29.106676
RightHand -7.464415 0.000000 6.248479
RightHandThumb1 -24.326973 -0.000000 -32.862282
LeftUpLeg -83.900790 46.725511 -27.889487
LeftLeg 17.825783 -0.000000 -0.000000
LeftFoot -13.012915 21.667082 -9.107493
LeftToeBase 5.571546 -0.000000 -0.000000
RightUpLeg -28.914060 -11.938496 -29.782883
RightLeg 152.798953 -0.000000 -0.000000
RightFoot 33.784790 13.128330 11.514426
RightToeBase -8.403230 -0.000000 0.000000
1219
root 9.941044 38.915093 7.459290 215.315983 -10.265550 -138.621706
Spine -14.917647 5.922234 6.904778
Head -11.976471 -0.234904 31.703959
LeftShoulder -6.568437 22.641578 23.025937
LeftArm 5.109815 31.241646 -78.838319
LeftForeArm 9.514622 -0.000000 34.080312
LeftHand -13.077367 -0.000000 -16.214977
LeftHandThumb1 -26.253704 0.000000 33.147579
RightShoulder -48.878358 -50.502836 31.598421
RightArm 37.085122 -16.149256 63.313500
RightForeArm 44.669469 -0.000000 28.867864
RightHand -7.664646 -0.000000 5.958383
RightHandThumb1 -24.326973 -0.000000 -32.862282
LeftUpLeg -83.878774 46.764411 -28.040231
LeftLeg 17.626282 -0.000000 -0.000000
LeftFoot -12.987053 21.474092 -9.274239
LeftToeBase 5.779197 -0.000000 -0.000000
RightUpLeg -28.616873 -11.754231 -29.809509
RightLeg 152.613747 -0.000000 -0.000000
RightFoot 34.265818 13.075610 11.685727
RightToeBase -8.046674 -0.000000 0.000000
